<svg xmlns="http://www.w3.org/2000/svg" version="1.0" width="32.000000pt" height="32.000000pt" viewBox="0 0 32.000000 32.000000" preserveAspectRatio="xMidYMid meet">
  <defs>
    <linearGradient id="grad1" gradientTransform="rotate(0)">
      <stop offset="0%" style="stop-color:#6e38e0;stop-opacity:1" />
      <stop offset="100%" style="stop-color:#ff5f36;stop-opacity:1" />
    </linearGradient>
  </defs>
  <g transform="translate(0.000000,32.000000) scale(0.100000,-0.100000)" fill="url(#grad1)" stroke="none">
    <path d="M141 265 l-12 -35 -40 21 -40 20 20 -40 21 -40 -35 -12 c-19 -7 -35 -16 -35 -19 0 -3 16 -12 35 -19 l35 -12 -21 -40 -20 -40 40 20 40 21 12 -35 c7 -19 16 -35 19 -35 3 0 12 16 19 35 l12 35 40 -21 40 -20 -20 40 -21 40 35 11 c19 6 35 15 35 20 0 5 -16 14 -35 20 l-35 11 21 40 20 40 -40 -20 -40 -21 -12 35 c-7 19 -16 35 -19 35 -3 0 -12 -16 -19 -35z"/>
  </g>
</svg>
